# xmcd CD database file
#
# Track frame offsets:
#	150
#	12720
#	27548
#	52838
#	82495
#	102884
#	119438
#	154863
#	165155
#	177889
#	201235
#
# Disc length: 3027 seconds
#
# Revision: 0
# Processed by: cddbd v1.5.2PL0 Copyright (c) Steve Scherf et al.
# Submitted via: CDex 1.51
#
DISCID=8f0bd10b
DTITLE=Okay Temiz - Yihhuu
DYEAR=2007
DGENRE=Jazz
TTITLE0=Padampa
TTITLE1=Fasvi
TTITLE2=Boru 1
TTITLE3=Gym
TTITLE4=Boru 2
TTITLE5=Yihhuu
TTITLE6=Sufi Dream
TTITLE7=Lebu
TTITLE8=Landscape
TTITLE9=Duri
TTITLE10=Never Ending
EXTD=YEAR: 2007
EXTT0=
EXTT1=
EXTT2=
EXTT3=
EXTT4=
EXTT5=
EXTT6=
EXTT7=
EXTT8=
EXTT9=
EXTT10=
PLAYORDER=
